<?xml version="1.0" encoding="UTF-8" standalone="no"?>
<svg
   xmlns:dc="http://purl.org/dc/elements/1.1/"
   xmlns:cc="http://creativecommons.org/ns#"
   xmlns:rdf="http://www.w3.org/1999/02/22-rdf-syntax-ns#"
   xmlns:svg="http://www.w3.org/2000/svg"
   xmlns="http://www.w3.org/2000/svg"
   xmlns:sodipodi="http://sodipodi.sourceforge.net/DTD/sodipodi-0.dtd"
   xmlns:inkscape="http://www.inkscape.org/namespaces/inkscape"
   width="544.16998"
   height="544.8642"
   version="1.1"
   id="svg865"
   sodipodi:docname="icon-vector.svg"
   inkscape:version="0.92.3 (2405546, 2018-03-11)"
   inkscape:export-filename="C:\Users\Dan\Documents\GitHub\search-keybindings-addon\icons\icon-150.png"
   inkscape:export-xdpi="27.25547"
   inkscape:export-ydpi="27.25547">
  <title
     id="title4711">Search Keybindings Addon Logo</title>
  <defs
     id="defs869" />
  <sodipodi:namedview
     pagecolor="#ffffff"
     bordercolor="#666666"
     borderopacity="1"
     objecttolerance="10"
     gridtolerance="10"
     guidetolerance="10"
     inkscape:pageopacity="0"
     inkscape:pageshadow="2"
     inkscape:window-width="2160"
     inkscape:window-height="1346"
     id="namedview867"
     showgrid="false"
     inkscape:zoom="2.0060044"
     inkscape:cx="224.6948"
     inkscape:cy="266.35846"
     inkscape:window-x="-11"
     inkscape:window-y="-11"
     inkscape:window-maximized="1"
     inkscape:current-layer="layer3"
     inkscape:pagecheckerboard="true" />
  <metadata
     id="metadata7">
    <rdf:RDF>
      <cc:Work
         rdf:about="">
        <dc:format>image/svg+xml</dc:format>
        <dc:type
           rdf:resource="http://purl.org/dc/dcmitype/StillImage" />
        <dc:title>Search Keybindings Addon Logo</dc:title>
      </cc:Work>
    </rdf:RDF>
  </metadata>
  <g
     inkscape:groupmode="layer"
     id="layer3"
     inkscape:label="Rest"
     style="display:inline">
    <g
       id="layer1"
       transform="translate(-69.980994,-160.33288)">
      <g
         id="g3699"
         transform="matrix(1.532388,0,0,1.3939671,-54.912136,-41.792396)">
        <path
           id="path2836"
           d="M 260.50744,170.69515 105.98412,340.79094 259.8636,510.178 414.38691,340.08221 Z"
           style="fill:#019833;fill-opacity:1;stroke:#000000;stroke-width:0.94571567px;stroke-linecap:butt;stroke-linejoin:miter;stroke-opacity:1"
           inkscape:connector-curvature="0" />
        <path
           id="path2838"
           d="M 259.8636,171.40389 V 156.52051 L 91.819492,341.49967 h 14.164628 z"
           style="fill:#66fe98;fill-opacity:1;stroke:#000000;stroke-width:0.94571567px;stroke-linecap:butt;stroke-linejoin:miter;stroke-opacity:1"
           inkscape:connector-curvature="0" />
        <path
           style="fill:#45fe02;fill-opacity:1;stroke:#000000;stroke-width:0.94571567px;stroke-linecap:butt;stroke-linejoin:miter;stroke-opacity:1"
           d="m 259.47729,171.40389 v -14.88338 l 168.0441,184.97916 h -14.16463 z"
           id="path2840"
           inkscape:connector-curvature="0" />
        <path
           style="fill:#017d17;fill-opacity:1;stroke:#000000;stroke-width:0.94571567px;stroke-linecap:butt;stroke-linejoin:miter;stroke-opacity:1"
           d="M 259.8636,511.17022 V 526.0536 L 91.819492,341.07444 h 14.164628 z"
           id="path2842"
           inkscape:connector-curvature="0" />
        <path
           id="path3650"
           d="m 122.99448,175.30643 h 108.35396 l 6.60139,7.26665 v 22.30116 l -5.23559,7.01608 H 220.87725 V 322.64438 L 322.85744,211.89032 H 306.0125 l -5.9185,-7.01608 v -23.55403 l 5.46323,-5.51264 h 109.71976 l 5.46322,6.01379 v 22.05058 L 172.61878,484.01452 H 144.39212 L 136.22179,478.822 V 210.88803 h -13.68257 l -5.00795,-5.51264 v -23.55403 z"
           style="fill:#f4c20d;stroke:#000000;stroke-width:18.91429905;stroke-linecap:butt;stroke-linejoin:miter;stroke-miterlimit:4;stroke-dasharray:none;stroke-opacity:1;fill-opacity:1"
           inkscape:connector-curvature="0" />
        <path
           id="path2844"
           d="M 259.47729,511.17022 V 526.0536 L 427.52139,341.07444 H 413.35676 Z"
           style="fill:#005d04;fill-opacity:1;stroke:#000000;stroke-width:0.94571567px;stroke-linecap:butt;stroke-linejoin:miter;stroke-opacity:1"
           inkscape:connector-curvature="0" />
        <path
           style="fill:none;stroke:#000000;stroke-width:5.67429399;stroke-linecap:butt;stroke-linejoin:miter;stroke-miterlimit:4;stroke-dasharray:none;stroke-opacity:1"
           d="M 259.41018,155.14848 90.734026,340.82339 258.70737,525.72467 427.38353,340.04975 Z"
           id="path2846"
           inkscape:connector-curvature="0" />
        <path
           id="path3640"
           d="m 232.50008,186.64163 6.11655,-3.54366 -6.27751,-6.91014 H 123.04607 l -5.55319,6.11281 v 23.1224 l 6.15679,6.77725 2.93756,-6.77725 -3.86308,-4.2524 v -16.30085 l 2.89731,-2.83492 H 229.9247 Z"
           style="fill:#000000;fill-opacity:1;stroke:#000000;stroke-width:0.94571567px;stroke-linecap:butt;stroke-linejoin:miter;stroke-opacity:1"
           inkscape:connector-curvature="0" />
        <path
           transform="matrix(0.90138601,0,0,0.99222542,-437.42287,-185.30615)"
           d="m 828.9375,369.5 -4.28125,4.28125 V 389.5 l 3.75,3.75 h 19.8125 v 15.1875 L 717.15625,541.28125 V 393.4375 h 21.78125 l 4.46875,-4.46875 V 373.0625 l -4.125,-3.1875 h -114.625 l -3.75,3.75 v 16.25 l 3.8125,3.8125 h 19.9375 v 272.25 l 3.75,3.75 H 671.0625 L 945.71875,386.28125 v -12.5 L 941.4375,369.5 Z"
           id="path3632"
           style="fill:none;stroke:#000000;stroke-width:1px;stroke-linecap:butt;stroke-linejoin:miter;stroke-opacity:1"
           inkscape:connector-curvature="0" />
        <path
           id="path3646"
           d="m 143.48158,204.87424 v 270.62073 l 3.18688,4.0092 -2.49916,5.24301 -7.06148,-7.74876 v -265.1081 z"
           style="fill:#000000;fill-opacity:0;stroke:#000000;stroke-width:0.94571567px;stroke-linecap:butt;stroke-linejoin:miter;stroke-opacity:1"
           inkscape:connector-curvature="0" />
        <path
           id="path3644"
           d="m 125.82451,204.87424 -1.82108,6.51494 h 13.2028 l 7.2843,-6.51494 z"
           style="fill:#000000;fill-opacity:0;stroke:#000000;stroke-width:0.94571567px;stroke-linecap:butt;stroke-linejoin:miter;stroke-opacity:1"
           inkscape:connector-curvature="0" />
        <path
           id="path3638"
           d="m 307.18636,212.19144 2.89731,-6.55577 -4.18501,-4.2524 v -14.52901 l 4.82886,-5.31551 H 411.4896 l 3.86308,5.66987 5.4727,-4.2524 -5.63366,-6.20141 H 306.86443 l -5.39221,5.93564 v 23.29957 l 5.59342,5.80276 m -87.54309,111.87785 -10.52288,28.10566 118.7898,-131.1155 v -15.59211 z"
           style="fill:#000000;fill-opacity:1;stroke:#000000;stroke-width:0.94571567px;stroke-linecap:butt;stroke-linejoin:miter;stroke-opacity:1"
           inkscape:connector-curvature="0" />
        <path
           id="path3642"
           d="m 232.25896,185.83056 5.2356,-3.75862 v 22.8023 l -6.03231,6.64023 h -11.72317 v 112.38277 l -10.69882,27.81381 V 204.87424 h 19.57656 l 3.64214,-3.25747 z"
           style="fill:#000000;fill-opacity:1;stroke:#000000;stroke-width:0.94571567px;stroke-linecap:butt;stroke-linejoin:miter;stroke-opacity:1"
           inkscape:connector-curvature="0" />
        <path
           id="path3636"
           d="m 415.35268,185.9329 5.49849,-3.49448 v 21.92152 L 171.46006,484.88124 H 144.9826 l 2.52966,-5.5331 h 20.28119 L 415.03076,198.33573 Z"
           style="fill:#000000;fill-opacity:0.99607843;stroke:#000000;stroke-width:0.94571567px;stroke-linecap:butt;stroke-linejoin:miter;stroke-opacity:1"
           inkscape:connector-curvature="0" />
        <path
           id="path3652"
           d="m 327.29631,205.25009 -5.57703,6.38966 h -14.56861 l 3.41452,-6.38966 c 0.11382,0 16.73112,0 16.73112,0 z"
           style="fill:#000000;fill-opacity:1;stroke:#000000;stroke-width:0.94571567px;stroke-linecap:butt;stroke-linejoin:miter;stroke-opacity:1"
           inkscape:connector-curvature="0" />
        <g
           transform="matrix(0.90138601,0,0,0.99222542,-92.530288,-192.23791)"
           id="g3673" />
      </g>
    </g>
    <path
       sodipodi:type="star"
       style="fill:#1a0dab;fill-opacity:1;stroke:#000000;stroke-width:12.70746803;stroke-miterlimit:4;stroke-dasharray:none;stroke-dashoffset:0;stroke-opacity:1"
       id="path968"
       sodipodi:sides="3"
       sodipodi:cx="402.57654"
       sodipodi:cy="418.49356"
       sodipodi:r1="117.1295"
       sodipodi:r2="58.564751"
       sodipodi:arg1="0"
       sodipodi:arg2="1.0471976"
       inkscape:flatsided="true"
       inkscape:rounded="0"
       inkscape:randomized="0"
       d="m 519.70604,418.49356 -175.69425,101.43712 0,-202.87424 z"
       inkscape:transform-center-x="-31.454629"
       inkscape:transform-center-y="-1.7580092e-006"
       transform="matrix(1.0741827,0,0,0.86239658,-40.973324,61.57417)" />
  </g>
  <g
     inkscape:groupmode="layer"
     id="layer2"
     inkscape:label="V"
     style="display:inline">
    <path
       style="fill:#f4c20d;fill-opacity:1;stroke:#000000;stroke-width:1;stroke-linecap:butt;stroke-linejoin:miter;stroke-opacity:1;stroke-miterlimit:4;stroke-dasharray:none"
       d="M 95.251953 202.39258 L 195.39453 202.39258 L 195.39453 83.738281 L 225.48047 83.738281 L 231.65234 77.558594 L 231.65234 55.558594 L 225.95508 51.148438 L 67.626953 51.148438 L 62.447266 56.335938 L 62.447266 78.8125 L 67.712891 84.083984 L 95.251953 84.083984 L 95.251953 202.39258 z "
       id="path941" />
    <path
       style="fill:#db3236;fill-opacity:1;stroke:#000000;stroke-width:1;stroke-linecap:butt;stroke-linejoin:miter;stroke-opacity:1;stroke-miterlimit:4;stroke-dasharray:none"
       d="M 195.20117 202.39258 L 95.251953 202.39258 L 95.251953 460.64258 L 100.43164 465.82812 L 131.72656 465.82812 L 195.20117 400.24414 L 195.20117 202.39258 z "
       id="path950" />
    <path
       style="fill:#3cba54;fill-opacity:1;stroke:#000000;stroke-width:1;stroke-linecap:butt;stroke-linejoin:miter;stroke-opacity:1;stroke-miterlimit:4;stroke-dasharray:none"
       d="M 195.20117 202.39258 L 195.20117 400.24414 L 386.6875 202.39258 L 279.96484 202.39258 L 195.39453 288.22656 L 195.39453 202.39258 L 195.20117 202.39258 z "
       id="path939" />
    <path
       style="fill:#4885ed;fill-opacity:1;stroke:#000000;stroke-width:1;stroke-linecap:butt;stroke-linejoin:miter;stroke-opacity:1;stroke-miterlimit:4;stroke-dasharray:none"
       d="M 349.79492 50.630859 L 343.88086 56.552734 L 343.88086 78.292969 L 349.06055 83.480469 L 376.42773 83.480469 L 376.42773 104.48633 L 279.96484 202.39258 L 386.6875 202.39258 L 511.10156 73.841797 L 511.10156 56.552734 L 505.1875 50.630859 L 349.79492 50.630859 z "
       id="path3622" />
  </g>
</svg>
